REM DIRINDEX 1\2,1\3,1\4,1\5
REM DIRNAME "folder01","folder02","folder03","folder04","folder05"
TITLE ""
FILE "1Q_t_0920-0929.mp3" MP3
  TRACK 01 AUDIO
    TITLE "3:cjc172_3714"
    INDEX 01 00:00:00
  TRACK 02 AUDIO
    TITLE "0:"
    INDEX 01 00:01:16
  TRACK 03 AUDIO
    TITLE "4:cjc172_3715"
    INDEX 01 00:01:23
  TRACK 04 AUDIO
    TITLE "0:"
    INDEX 01 00:04:39
  TRACK 05 AUDIO
    TITLE "5:cjc172_3716"
    INDEX 01 00:04:47
  TRACK 06 AUDIO
    TITLE "0:"
    INDEX 01 00:09:72
  TRACK 07 AUDIO
    TITLE "3:cjc172_3717"
    INDEX 01 00:10:42
  TRACK 08 AUDIO
    TITLE "0:"
    INDEX 01 00:11:55
  TRACK 09 AUDIO
    TITLE "4:cjc172_3718"
    INDEX 01 00:11:65
  TRACK 10 AUDIO
    TITLE "0:"
    INDEX 01 00:15:02
  TRACK 11 AUDIO
    TITLE "5:cjc172_3719"
    INDEX 01 00:15:10
  TRACK 12 AUDIO
    TITLE "0:"
    INDEX 01 00:18:73
  TRACK 13 AUDIO
    TITLE "3:cjc172_3720"
    INDEX 01 00:19:43
  TRACK 14 AUDIO
    TITLE "0:"
    INDEX 01 00:20:48
  TRACK 15 AUDIO
    TITLE "4:cjc172_3721"
    INDEX 01 00:20:58
  TRACK 16 AUDIO
    TITLE "0:"
    INDEX 01 00:24:26
  TRACK 17 AUDIO
    TITLE "5:cjc172_3722"
    INDEX 01 00:24:32
  TRACK 18 AUDIO
    TITLE "0:"
    INDEX 01 00:29:20
  TRACK 19 AUDIO
    TITLE "3:cjc172_3723"
    INDEX 01 00:29:67
  TRACK 20 AUDIO
    TITLE "0:"
    INDEX 01 00:31:03
  TRACK 21 AUDIO
    TITLE "4:cjc172_3724"
    INDEX 01 00:31:13
  TRACK 22 AUDIO
    TITLE "0:"
    INDEX 01 00:32:20
  TRACK 23 AUDIO
    TITLE "5:cjc172_3725"
    INDEX 01 00:32:28
  TRACK 24 AUDIO
    TITLE "0:"
    INDEX 01 00:36:16
  TRACK 25 AUDIO
    TITLE "3:cjc172_3726"
    INDEX 01 00:36:63
  TRACK 26 AUDIO
    TITLE "0:"
    INDEX 01 00:38:17
  TRACK 27 AUDIO
    TITLE "4:cjc172_3727"
    INDEX 01 00:38:25
  TRACK 28 AUDIO
    TITLE "0:"
    INDEX 01 00:40:25
  TRACK 29 AUDIO
    TITLE "5:cjc172_3728"
    INDEX 01 00:40:31
  TRACK 30 AUDIO
    TITLE "0:"
    INDEX 01 00:44:70
  TRACK 31 AUDIO
    TITLE "3:cjc172_3729"
    INDEX 01 00:45:40
  TRACK 32 AUDIO
    TITLE "0:"
    INDEX 01 00:46:36
  TRACK 33 AUDIO
    TITLE "4:cjc172_3730"
    INDEX 01 00:46:48
  TRACK 34 AUDIO
    TITLE "0:"
    INDEX 01 00:48:01
  TRACK 35 AUDIO
    TITLE "5:cjc172_3731"
    INDEX 01 00:48:09
  TRACK 36 AUDIO
    TITLE "0:"
    INDEX 01 00:52:31
  TRACK 37 AUDIO
    TITLE "3:cjc172_3732"
    INDEX 01 00:53:03
  TRACK 38 AUDIO
    TITLE "0:"
    INDEX 01 00:54:22
  TRACK 39 AUDIO
    TITLE "4:cjc172_3733"
    INDEX 01 00:54:30
  TRACK 40 AUDIO
    TITLE "0:"
    INDEX 01 00:57:32
  TRACK 41 AUDIO
    TITLE "5:cjc172_3734"
    INDEX 01 00:57:40
  TRACK 42 AUDIO
    TITLE "0:"
    INDEX 01 01:03:05
  TRACK 43 AUDIO
    TITLE "3:cjc172_3735"
    INDEX 01 01:03:50
  TRACK 44 AUDIO
    TITLE "0:"
    INDEX 01 01:04:69
  TRACK 45 AUDIO
    TITLE "4:cjc172_3736"
    INDEX 01 01:05:02
  TRACK 46 AUDIO
    TITLE "0:"
    INDEX 01 01:06:50
  TRACK 47 AUDIO
    TITLE "5:cjc172_3737"
    INDEX 01 01:06:56
  TRACK 48 AUDIO
    TITLE "0:"
    INDEX 01 01:12:31
  TRACK 49 AUDIO
    TITLE "3:cjc172_3738"
    INDEX 01 01:13:01
  TRACK 50 AUDIO
    TITLE "0:"
    INDEX 01 01:14:22
  TRACK 51 AUDIO
    TITLE "4:cjc172_3739"
    INDEX 01 01:14:30
  TRACK 52 AUDIO
    TITLE "0:"
    INDEX 01 01:16:33
  TRACK 53 AUDIO
    TITLE "5:cjc172_3740"
    INDEX 01 01:16:39
  TRACK 54 AUDIO
    TITLE "0:"
    INDEX 01 01:19:39
  TRACK 55 AUDIO
    TITLE "3:cjc172_3741"
    INDEX 01 01:20:11
  TRACK 56 AUDIO
    TITLE "0:"
    INDEX 01 01:21:21
  TRACK 57 AUDIO
    TITLE "4:cjc172_3742"
    INDEX 01 01:21:30
  TRACK 58 AUDIO
    TITLE "0:"
    INDEX 01 01:22:53
  TRACK 59 AUDIO
    TITLE "5:cjc172_3743"
    INDEX 01 01:22:59
  TRACK 60 AUDIO
    TITLE "0:"
    INDEX 01 01:28:05
